<svg 
 width="12px" height="12px">
<path fill-rule="evenodd"  fill="rgb(255, 255, 255)"
 d="M8.100,7.400 C9.250,6.700 10.000,5.450 10.000,4.000 C10.000,1.800 8.200,-0.000 6.000,-0.000 C3.800,-0.000 2.000,1.800 2.000,4.000 C2.000,5.450 2.750,6.700 3.900,7.400 C1.900,8.150 0.400,9.900 -0.000,12.000 L1.000,12.000 C1.500,9.700 3.550,8.000 6.000,8.000 C8.450,8.000 10.500,9.700 11.000,12.000 L12.000,12.000 C11.600,9.850 10.100,8.100 8.100,7.400 ZM3.000,4.000 C3.000,2.350 4.350,1.000 6.000,1.000 C7.650,1.000 9.000,2.350 9.000,4.000 C9.000,5.650 7.650,7.000 6.000,7.000 C4.350,7.000 3.000,5.650 3.000,4.000 Z"/>
</svg>