<svg 
 width="17px" height="19px">
<path fill-rule="evenodd"  fill="rgb(0, 0, 0)"
 d="M8.504,13.626 C5.006,13.626 1.289,14.568 1.289,16.314 C1.289,18.059 5.006,19.001 8.504,19.001 C12.003,19.001 15.720,18.059 15.720,16.314 C15.720,14.568 12.003,13.626 8.504,13.626 ZM8.504,14.363 C8.884,14.363 9.245,14.376 9.597,14.395 C9.590,14.423 9.580,14.449 9.580,14.479 C9.580,15.238 8.990,15.856 8.266,15.856 C7.542,15.856 6.952,15.238 6.952,14.479 C6.952,14.460 6.944,14.443 6.941,14.425 C7.433,14.386 7.952,14.363 8.504,14.363 ZM8.504,18.264 C4.470,18.264 1.993,17.128 1.993,16.314 C1.993,15.661 3.588,14.803 6.299,14.487 C6.303,15.621 7.184,16.542 8.266,16.542 C9.351,16.542 10.234,15.616 10.234,14.479 C10.234,14.465 10.228,14.453 10.227,14.439 C13.229,14.704 15.016,15.624 15.016,16.314 C15.016,17.128 12.539,18.264 8.504,18.264 ZM16.930,15.199 L14.785,12.404 C14.130,11.551 13.855,10.442 14.029,9.362 L14.092,8.971 C14.344,7.418 13.932,5.837 12.961,4.633 C12.226,3.720 11.232,3.103 10.138,2.858 L10.138,1.698 C10.138,0.761 9.411,-0.001 8.492,-0.001 C7.597,-0.001 6.870,0.761 6.870,1.698 L6.870,2.858 C5.777,3.103 4.783,3.720 4.047,4.633 C3.077,5.837 2.665,7.418 2.916,8.971 L2.979,9.362 C3.154,10.442 2.879,11.551 2.224,12.404 L0.079,15.199 C-0.034,15.346 -0.012,15.562 0.129,15.680 C0.270,15.798 0.475,15.776 0.589,15.628 L2.733,12.834 C3.506,11.827 3.831,10.520 3.625,9.247 L3.561,8.856 C3.342,7.503 3.701,6.124 4.547,5.075 C5.393,4.026 6.629,3.424 7.939,3.424 L9.070,3.424 C10.381,3.424 11.617,4.026 12.463,5.075 C13.308,6.124 13.667,7.503 13.448,8.856 L13.385,9.247 C13.179,10.520 13.504,11.827 14.276,12.834 L16.421,15.628 C16.486,15.712 16.581,15.756 16.676,15.756 C16.748,15.756 16.820,15.731 16.881,15.680 C17.020,15.562 17.043,15.346 16.930,15.199 ZM9.485,2.740 L7.524,2.740 L7.524,1.699 C7.524,1.139 7.958,0.684 8.517,0.684 C9.051,0.684 9.485,1.139 9.485,1.699 L9.485,2.740 Z"/>
</svg>