<svg 
 width="18px" height="17px">
<path fill-rule="evenodd"  fill="rgb(0, 0, 0)"
 d="M14.083,0.003 L3.920,0.003 C1.760,0.003 0.003,1.774 0.003,3.950 L0.003,11.060 C0.003,11.201 0.059,11.337 0.158,11.437 L5.523,16.842 C5.621,16.942 5.756,16.998 5.896,16.998 L14.083,16.998 C16.242,16.998 17.999,15.227 17.999,13.051 L17.999,3.950 C17.999,1.774 16.242,0.003 14.083,0.003 ZM5.634,15.446 L1.360,11.140 L3.455,11.140 C4.615,11.140 5.634,12.011 5.634,13.003 L5.634,15.446 ZM16.940,13.051 C16.940,14.640 15.658,15.932 14.083,15.932 L6.693,15.932 L6.693,13.003 C6.693,11.415 5.210,10.072 3.455,10.072 L1.062,10.072 L1.062,3.950 C1.062,2.362 2.344,1.070 3.920,1.070 L14.083,1.070 C15.659,1.070 16.941,2.362 16.941,3.950 L16.941,13.051 L16.940,13.051 ZM13.078,4.130 L4.610,4.130 C4.317,4.130 4.080,4.369 4.080,4.664 C4.080,4.958 4.317,5.197 4.610,5.197 L13.078,5.197 C13.371,5.197 13.607,4.958 13.607,4.664 C13.607,4.369 13.371,4.130 13.078,4.130 ZM13.078,7.331 L4.610,7.331 C4.317,7.331 4.080,7.570 4.080,7.864 C4.080,8.159 4.317,8.398 4.610,8.398 L13.078,8.398 C13.371,8.398 13.607,8.159 13.607,7.864 C13.607,7.570 13.371,7.331 13.078,7.331 Z"/>
</svg>