<svg 
 width="20px" height="15px">
<path fill-rule="evenodd"  fill="rgb(0, 0, 0)"
 d="M6.798,5.493 C6.798,5.725 6.618,5.914 6.396,5.914 L5.433,5.914 L5.433,6.922 C5.433,7.155 5.253,7.344 5.031,7.344 C4.809,7.344 4.629,7.155 4.629,6.922 L4.629,5.914 L3.666,5.914 C3.444,5.914 3.264,5.725 3.264,5.493 C3.264,5.260 3.444,5.072 3.666,5.072 L4.629,5.072 L4.629,4.063 C4.629,3.830 4.809,3.642 5.031,3.642 C5.253,3.642 5.433,3.830 5.433,4.063 L5.433,5.072 L6.396,5.072 C6.618,5.072 6.798,5.260 6.798,5.493 ZM9.239,5.072 L9.082,5.072 C8.860,5.072 8.680,5.260 8.680,5.493 C8.680,5.725 8.860,5.914 9.082,5.914 L9.239,5.914 C9.461,5.914 9.641,5.725 9.641,5.493 C9.641,5.260 9.461,5.072 9.239,5.072 ZM16.083,9.792 C16.022,9.568 15.800,9.438 15.586,9.501 C15.373,9.565 15.248,9.797 15.309,10.021 C15.497,10.719 16.065,11.718 16.534,12.420 C16.612,12.537 16.737,12.600 16.864,12.600 C16.944,12.600 17.024,12.575 17.094,12.524 C17.276,12.390 17.320,12.128 17.193,11.937 C16.659,11.138 16.213,10.276 16.083,9.792 ZM4.413,9.501 C4.200,9.438 3.978,9.569 3.917,9.792 C3.787,10.276 3.341,11.138 2.807,11.937 C2.679,12.128 2.724,12.390 2.906,12.524 C2.976,12.575 3.056,12.600 3.136,12.600 C3.263,12.600 3.387,12.537 3.466,12.420 C3.935,11.718 4.503,10.719 4.691,10.021 C4.752,9.797 4.627,9.565 4.413,9.501 ZM10.917,5.072 L10.761,5.072 C10.539,5.072 10.358,5.260 10.358,5.493 C10.358,5.725 10.539,5.914 10.761,5.914 L10.917,5.914 C11.140,5.914 11.320,5.725 11.320,5.493 C11.320,5.260 11.140,5.072 10.917,5.072 ZM14.992,7.319 C14.031,7.319 13.249,6.500 13.249,5.493 C13.249,4.486 14.031,3.667 14.992,3.667 C15.954,3.667 16.736,4.486 16.736,5.493 C16.736,6.500 15.954,7.319 14.992,7.319 ZM15.932,5.493 C15.932,4.950 15.510,4.509 14.992,4.509 C14.475,4.509 14.053,4.950 14.053,5.493 C14.053,6.035 14.475,6.477 14.992,6.477 C15.510,6.477 15.932,6.035 15.932,5.493 ZM9.243,10.443 C7.081,10.452 7.044,10.515 6.099,12.111 C5.039,13.902 4.282,15.000 2.170,15.000 C1.533,15.000 0.957,14.732 0.550,14.246 C0.123,13.736 -0.069,13.028 0.022,12.304 L0.890,5.410 C1.389,1.446 3.239,0.613 5.272,0.501 C5.267,0.475 5.264,0.449 5.264,0.421 C5.264,0.188 5.445,-0.000 5.667,-0.000 L6.838,-0.000 C7.060,-0.000 7.240,0.188 7.240,0.421 C7.240,0.443 7.238,0.466 7.235,0.487 L12.765,0.487 C12.762,0.466 12.760,0.443 12.760,0.421 C12.760,0.188 12.940,-0.000 13.162,-0.000 L14.333,-0.000 C14.555,-0.000 14.735,0.188 14.735,0.421 C14.735,0.449 14.733,0.475 14.728,0.501 C16.761,0.613 18.610,1.446 19.110,5.410 L19.978,12.304 C20.069,13.028 19.876,13.736 19.450,14.246 C19.042,14.732 18.467,15.000 17.830,15.000 C15.718,15.000 14.961,13.902 13.901,12.111 C12.957,10.516 12.920,10.453 10.786,10.443 L9.243,10.443 ZM10.789,9.601 C13.225,9.613 13.506,9.845 14.584,11.667 C15.607,13.394 16.130,14.158 17.830,14.158 C18.232,14.158 18.593,13.992 18.845,13.690 C19.123,13.358 19.242,12.905 19.180,12.414 L18.312,5.520 C18.093,3.779 17.594,2.628 16.787,2.001 C16.026,1.409 15.036,1.330 14.167,1.330 L5.833,1.330 C4.964,1.330 3.974,1.409 3.213,2.001 C2.406,2.628 1.907,3.779 1.688,5.520 L0.819,12.414 C0.758,12.905 0.877,13.358 1.155,13.690 C1.407,13.992 1.768,14.158 2.170,14.158 C3.870,14.158 4.393,13.394 5.415,11.667 C6.494,9.844 6.777,9.611 9.240,9.601 L10.789,9.601 Z"/>
</svg>