<svg 
 width="20px" height="16px">
<path fill-rule="evenodd"  fill="rgb(0, 0, 0)"
 d="M13.069,6.343 C12.595,6.502 8.413,7.929 7.494,8.981 C7.001,9.546 6.763,10.266 6.823,11.007 C6.884,11.747 7.237,12.421 7.817,12.902 C8.332,13.330 8.988,13.566 9.664,13.566 C10.501,13.566 11.292,13.210 11.835,12.589 C12.753,11.535 13.530,7.279 13.615,6.797 C13.640,6.655 13.587,6.512 13.475,6.418 C13.362,6.325 13.209,6.296 13.069,6.343 ZM11.200,12.061 C10.505,12.857 9.173,12.962 8.356,12.283 C7.946,11.942 7.697,11.467 7.654,10.942 C7.611,10.418 7.779,9.909 8.128,9.509 C8.644,8.918 10.916,7.971 12.663,7.347 C12.315,9.095 11.710,11.477 11.200,12.061 ZM10.000,-0.002 C4.486,-0.002 0.000,4.438 0.000,9.897 C0.000,11.979 0.698,14.087 1.966,15.832 C2.044,15.940 2.171,16.004 2.306,16.004 L17.693,16.004 C17.828,16.004 17.955,15.940 18.033,15.832 C19.302,14.087 20.000,11.963 20.000,9.851 C19.999,4.418 15.514,-0.002 10.000,-0.002 ZM17.475,15.190 L2.524,15.190 C1.432,13.616 0.833,11.744 0.833,9.897 C0.833,4.887 4.945,0.811 10.000,0.811 C15.054,0.811 19.166,4.865 19.166,9.850 C19.166,11.727 18.567,13.615 17.475,15.190 ZM10.000,2.338 C6.127,2.338 2.978,5.442 2.978,9.258 C2.978,9.483 3.164,9.665 3.394,9.665 C3.625,9.665 3.811,9.483 3.811,9.258 C3.811,5.891 6.587,3.151 10.000,3.151 C13.412,3.151 16.189,5.881 16.189,9.236 C16.189,9.461 16.375,9.643 16.606,9.643 C16.836,9.643 17.023,9.461 17.023,9.236 C17.022,5.432 13.872,2.338 10.000,2.338 Z"/>
</svg>