<svg 
 width="19px" height="16px">
<path fill-rule="evenodd"  fill="rgb(0, 0, 0)"
 d="M18.655,-0.000 L15.207,-0.000 L3.793,-0.000 L0.345,-0.000 C0.154,-0.000 -0.000,0.155 -0.000,0.348 L-0.000,4.174 L-0.000,8.000 L-0.000,11.826 L-0.000,15.652 C-0.000,15.844 0.154,16.000 0.345,16.000 L3.793,16.000 L15.207,16.000 L18.655,16.000 C18.845,16.000 19.000,15.844 19.000,15.652 L19.000,11.826 L19.000,8.000 L19.000,4.174 L19.000,0.348 C19.000,0.155 18.845,-0.000 18.655,-0.000 ZM18.310,7.652 L15.552,7.652 L15.552,4.522 L18.310,4.522 L18.310,7.652 ZM14.862,4.174 L14.862,7.652 L4.138,7.652 L4.138,4.174 L4.138,0.696 L14.862,0.696 L14.862,4.174 ZM3.448,7.652 L0.689,7.652 L0.689,4.522 L3.448,4.522 L3.448,7.652 ZM0.689,8.348 L3.448,8.348 L3.448,11.478 L0.689,11.478 L0.689,8.348 ZM4.138,11.826 L4.138,8.348 L14.862,8.348 L14.862,11.826 L14.862,15.304 L4.138,15.304 L4.138,11.826 ZM15.552,8.348 L18.310,8.348 L18.310,11.478 L15.552,11.478 L15.552,8.348 ZM18.310,0.696 L18.310,3.826 L15.552,3.826 L15.552,0.696 L18.310,0.696 ZM0.689,0.696 L3.448,0.696 L3.448,3.826 L0.689,3.826 L0.689,0.696 ZM0.689,15.304 L0.689,12.174 L3.448,12.174 L3.448,15.304 L0.689,15.304 ZM18.310,15.304 L15.552,15.304 L15.552,12.174 L18.310,12.174 L18.310,15.304 Z"/>
</svg>